<svg xmlns="http://www.w3.org/2000/svg" viewBox="0 0 128 128" width="100%" height="100%">
  <defs>
    <radialGradient id="favBg" cx="50%" cy="45%" r="65%">
      <stop offset="0%" stop-color="#182030" />
      <stop offset="60%" stop-color="#0E1422" />
      <stop offset="100%" stop-color="#04060A" />
    </radialGradient>
    <linearGradient id="favGold" x1="0%" y1="0%" x2="100%" y2="100%">
      <stop offset="0%" stop-color="#FFF8E0" />
      <stop offset="25%" stop-color="#FCE59F" />
      <stop offset="50%" stop-color="#DDB34B" />
      <stop offset="75%" stop-color="#B28222" />
      <stop offset="100%" stop-color="#E2BE60" />
    </linearGradient>
    <filter id="favShadow" x="-20%" y="-20%" width="140%" height="140%">
      <feDropShadow dx="1" dy="2" stdDeviation="2" flood-color="#000000" flood-opacity="0.8" />
    </filter>
  </defs>

  <rect width="128" height="128" rx="28" fill="url(#favBg)" />
  <rect x="3" y="3" width="122" height="122" rx="25" fill="none" stroke="url(#favGold)" stroke-width="1.8" opacity="0.4" />

  <!-- Monogram TT scaled and centered -->
  <g transform="translate(18, 14) scale(0.23)" filter="url(#favShadow)">
    <path d="M 280 190 C 330 150, 440 145, 500 175 C 525 188, 530 208, 515 220 C 495 235, 465 222, 450 210 C 405 190, 345 192, 315 210 C 300 218, 295 230, 305 245 C 330 290, 375 365, 360 440 C 345 510, 295 550, 240 535 C 195 520, 185 475, 210 445 C 230 415, 275 430, 275 460 C 275 480, 255 490, 240 485 C 230 482, 228 475, 230 468 C 235 455, 260 458, 265 478 C 268 492, 285 505, 310 490 C 340 468, 355 395, 325 320 C 310 282, 288 245, 265 215 C 250 198, 262 190, 280 190 Z" fill="url(#favGold)" />
    <path d="M 370 210 C 415 165, 540 160, 605 195 C 628 208, 630 226, 612 240 C 590 255, 560 240, 545 225 C 500 200, 430 205, 400 228 C 385 240, 385 255, 395 272 C 430 330, 475 405, 445 485 C 425 538, 372 568, 325 552 C 285 538, 278 500, 302 470 C 325 440, 370 448, 370 480 C 370 502, 348 510, 332 505 C 328 502, 325 495, 328 490 C 335 478, 358 480, 362 495 C 368 510, 388 522, 408 508 C 438 482, 442 410, 410 335 C 390 292, 362 252, 348 230 C 338 215, 350 210, 370 210 Z" fill="url(#favGold)" opacity="0.95" />
    <text x="400" y="605" font-family="'Cinzel', serif" font-size="70" font-weight="900" letter-spacing="16" text-anchor="middle" fill="url(#favGold)">T&amp;T</text>
  </g>
</svg>
